<svg width="524.9849609375px" height="138.830029296875px" xmlns="http://www.w3.org/2000/svg" viewBox="-12.492480468749989 5.584985351562494 524.9849609375 138.830029296875" style="background: none;" preserveAspectRatio="xMidYMid"><defs><filter id="editing-hover" x="-100%" y="-100%" width="300%" height="300%"><feFlood flood-color="#d6d9db" result="flood"></feFlood><feComposite operator="in" in2="SourceAlpha" in="flood" result="shadow"></feComposite><feOffset dx="-2" dy="-2.7" in="SourceGraphic" result="offset-1"></feOffset><feOffset dx="2" dy="2.7" in="shadow" result="offset-2"></feOffset><feMerge><feMergeNode in="offset-2"></feMergeNode><feMergeNode in="offset-1"></feMergeNode></feMerge></filter></defs><g filter="url(#editing-hover)"><g transform="translate(64.14500308036804, 100.34500122070312)"><path d="M44.48 0L1.28 0L1.28-10.50L4.48-10.50L4.48-39.30L1.28-39.30L1.28-49.79L44.48-49.79L44.48-30.46L30.14-30.46L30.14-39.30L22.40-39.30L22.40-29.18L28.03-29.18L28.03-21.89L22.40-21.89L22.40-10.50L30.14-10.50L30.14-20.61L44.48-20.61L44.48 0ZM75.26-18.30L83.52-10.50L85.57-10.50L85.57 0L65.60 0L65.60-10.50L67.39-10.50L64.90-14.27L64.26-14.27L61.76-10.50L63.55-10.50L63.55 0L46.40 0L46.40-10.50L49.09-10.50L56.83-17.41L48.70-25.09L46.66-25.09L46.66-35.58L66.62-35.58L66.62-25.09L64.83-25.09L67.33-21.38L67.97-21.38L70.46-25.09L68.67-25.09L68.67-35.58L85.31-35.58L85.31-25.09L82.62-25.09L75.26-18.30ZM103.30 0.90L103.30 0.90Q96.51 0.90 93.09-2.40L93.09-2.40L93.09-2.40Q89.66-5.70 89.66-13.50L89.66-13.50L89.66-25.09L86.85-25.09L86.85-35.58L86.85-35.58Q89.28-35.58 90.50-36.83L90.50-36.83L90.50-36.83Q91.71-38.08 91.71-40.26L91.71-40.26L91.71-43.14L105.28-43.14L105.28-35.58L113.92-35.58L113.92-25.09L105.28-25.09L105.28-14.59L105.28-14.59Q105.28-12.48 106.21-11.49L106.21-11.49L106.21-11.49Q107.14-10.50 108.99-10.50L108.99-10.50L108.99-10.50Q111.42-10.50 114.30-11.07L114.30-11.07L114.30-1.02L114.30-1.02Q112.51-0.32 109.47 0.29L109.47 0.29L109.47 0.29Q106.43 0.90 103.30 0.90L103.30 0.90ZM135.42 0.90L135.42 0.90Q126.34 0.90 121.22-3.87L121.22-3.87L121.22-3.87Q116.10-8.64 116.10-17.79L116.10-17.79L116.10-17.79Q116.10-26.94 121.22-31.71L121.22-31.71L121.22-31.71Q126.34-36.48 135.42-36.48L135.42-36.48L135.42-36.48Q144.45-36.48 148.45-31.78L148.45-31.78L148.45-31.78Q152.45-27.07 152.45-20.10L152.45-20.10L152.45-15.49L131.71-15.49L131.71-15.10L131.71-15.10Q131.71-12.74 133.12-11.62L133.12-11.62L133.12-11.62Q134.53-10.50 137.79-10.50L137.79-10.50L137.79-10.50Q141.70-10.50 145.22-11.07L145.22-11.07L145.22-11.07Q148.74-11.65 151.36-12.54L151.36-12.54L151.36-2.30L151.36-2.30Q149.12-1.09 144.80-0.10L144.80-0.10L144.80-0.10Q140.48 0.90 135.42 0.90L135.42 0.90ZM131.71-22.53L139.14-22.53L139.14-23.30L139.14-23.30Q139.14-25.47 138.21-26.43L138.21-26.43L138.21-26.43Q137.28-27.39 135.42-27.39L135.42-27.39L135.42-27.39Q133.57-27.39 132.64-26.40L132.64-26.40L132.64-26.40Q131.71-25.41 131.71-23.30L131.71-23.30L131.71-22.53ZM194.05-10.50L196.86-10.50L196.86 0L176.64 0L176.64-10.50L179.33-10.50L179.33-20.99L179.33-20.99Q179.33-23.10 178.43-24.10L178.43-24.10L178.43-24.10Q177.54-25.09 175.74-25.09L175.74-25.09L175.74-25.09Q171.90-25.09 171.90-20.99L171.90-20.99L171.90-10.50L174.59-10.50L174.59 0L154.37 0L154.37-10.50L157.18-10.50L157.18-25.09L154.37-25.09L154.37-35.58L171.90-35.58L171.90-30.59L171.90-30.59Q176.51-36.48 183.42-36.48L183.42-36.48L183.42-36.48Q188.74-36.48 191.39-33.15L191.39-33.15L191.39-33.15Q194.05-29.82 194.05-24L194.05-24L194.05-10.50ZM214.46 0.90L214.46 0.90Q206.40 0.90 198.91-1.66L198.91-1.66L198.91-11.14L209.28-11.14L209.28-10.50L209.28-10.50Q209.28-7.42 213.18-7.42L213.18-7.42L213.18-7.42Q216.64-7.42 216.64-9.79L216.64-9.79L216.64-9.79Q216.64-11.07 215.65-11.71L215.65-11.71L215.65-11.71Q214.66-12.35 212.16-12.80L212.16-12.80L208.96-13.38L208.96-13.38Q198.91-15.17 198.91-24.77L198.91-24.77L198.91-24.77Q198.91-30.34 203.14-33.41L203.14-33.41L203.14-33.41Q207.36-36.48 214.53-36.48L214.53-36.48L214.53-36.48Q222.53-36.48 228.03-33.79L228.03-33.79L228.03-24.90L218.30-24.90L218.30-25.54L218.30-25.54Q218.30-26.82 217.44-27.49L217.44-27.49L217.44-27.49Q216.58-28.16 214.91-28.16L214.91-28.16L214.91-28.16Q211.71-28.16 211.71-26.11L211.71-26.11L211.71-26.11Q211.71-25.02 212.61-24.45L212.61-24.45L212.61-24.45Q213.50-23.87 215.87-23.36L215.87-23.36L219.52-22.66L219.52-22.66Q225.22-21.57 227.65-18.62L227.65-18.62L227.65-18.62Q230.08-15.68 230.08-11.07L230.08-11.07L230.08-11.07Q230.08-5.25 226.02-2.18L226.02-2.18L226.02-2.18Q221.95 0.90 214.46 0.90L214.46 0.90ZM248.26-39.10L235.20-39.10L235.20-49.79L248.26-49.79L248.26-39.10ZM252.48 0L232.13 0L232.13-10.50L234.94-10.50L234.94-25.09L232.13-25.09L232.13-35.58L249.66-35.58L249.66-10.50L252.48-10.50L252.48 0ZM273.34 0.90L273.34 0.90Q264.26 0.90 259.14-3.87L259.14-3.87L259.14-3.87Q254.02-8.64 254.02-17.79L254.02-17.79L254.02-17.79Q254.02-26.94 259.14-31.71L259.14-31.71L259.14-31.71Q264.26-36.48 273.34-36.48L273.34-36.48L273.34-36.48Q282.56-36.48 287.62-31.65L287.62-31.65L287.62-31.65Q292.67-26.82 292.67-17.79L292.67-17.79L292.67-17.79Q292.67-8.64 287.55-3.87L287.55-3.87L287.55-3.87Q282.43 0.90 273.34 0.90L273.34 0.90ZM273.34-10.50L273.34-10.50Q275.20-10.50 276.13-11.49L276.13-11.49L276.13-11.49Q277.06-12.48 277.06-14.59L277.06-14.59L277.06-20.99L277.06-20.99Q277.06-23.10 276.13-24.10L276.13-24.10L276.13-24.10Q275.20-25.09 273.34-25.09L273.34-25.09L273.34-25.09Q271.49-25.09 270.56-24.10L270.56-24.10L270.56-24.10Q269.63-23.10 269.63-20.99L269.63-20.99L269.63-14.59L269.63-14.59Q269.63-12.48 270.56-11.49L270.56-11.49L270.56-11.49Q271.49-10.50 273.34-10.50L273.34-10.50ZM334.40-10.50L337.22-10.50L337.22 0L316.99 0L316.99-10.50L319.68-10.50L319.68-20.99L319.68-20.99Q319.68-23.10 318.78-24.10L318.78-24.10L318.78-24.10Q317.89-25.09 316.10-25.09L316.10-25.09L316.10-25.09Q312.26-25.09 312.26-20.99L312.26-20.99L312.26-10.50L314.94-10.50L314.94 0L294.72 0L294.72-10.50L297.54-10.50L297.54-25.09L294.72-25.09L294.72-35.58L312.26-35.58L312.26-30.59L312.26-30.59Q316.86-36.48 323.78-36.48L323.78-36.48L323.78-36.48Q329.09-36.48 331.74-33.15L331.74-33.15L331.74-33.15Q334.40-29.82 334.40-24L334.40-24L334.40-10.50ZM354.82 0.90L354.82 0.90Q346.75 0.90 339.26-1.66L339.26-1.66L339.26-11.14L349.63-11.14L349.63-10.50L349.63-10.50Q349.63-7.42 353.54-7.42L353.54-7.42L353.54-7.42Q356.99-7.42 356.99-9.79L356.99-9.79L356.99-9.79Q356.99-11.07 356-11.71L356-11.71L356-11.71Q355.01-12.35 352.51-12.80L352.51-12.80L349.31-13.38L349.31-13.38Q339.26-15.17 339.26-24.77L339.26-24.77L339.26-24.77Q339.26-30.34 343.49-33.41L343.49-33.41L343.49-33.41Q347.71-36.48 354.88-36.48L354.88-36.48L354.88-36.48Q362.88-36.48 368.38-33.79L368.38-33.79L368.38-24.90L358.66-24.90L358.66-25.54L358.66-25.54Q358.66-26.82 357.79-27.49L357.79-27.49L357.79-27.49Q356.93-28.16 355.26-28.16L355.26-28.16L355.26-28.16Q352.06-28.16 352.06-26.11L352.06-26.11L352.06-26.11Q352.06-25.02 352.96-24.45L352.96-24.45L352.96-24.45Q353.86-23.87 356.22-23.36L356.22-23.36L359.87-22.66L359.87-22.66Q365.57-21.57 368-18.62L368-18.62L368-18.62Q370.43-15.68 370.43-11.07L370.43-11.07L370.43-11.07Q370.43-5.25 366.37-2.18L366.37-2.18L366.37-2.18Q362.30 0.90 354.82 0.90L354.82 0.90Z" fill="#e0a771"></path></g></g><style>text {
  font-size: 64px;
  font-family: Arial Black;
  dominant-baseline: central;
  text-anchor: middle;
}</style></svg>