<?xml version="1.0" encoding="UTF-8"?>
<svg width="35px" height="40px" viewBox="0 0 35 40" version="1.1" xmlns="http://www.w3.org/2000/svg" xmlns:xlink="http://www.w3.org/1999/xlink">
    <!-- Generator: Sketch 63.1 (92452) - https://sketch.com -->
    <title>icon-prime</title>
    <desc>Created with Sketch.</desc>
    <g id="Symbols" stroke="none" stroke-width="1" fill="none" fill-rule="evenodd">
        <g id="prime/icon" transform="translate(-10.000000, -8.000000)" fill="#E0A771">
            <g id="prime-icon">
                <g id="icon-prime" transform="translate(10.200000, 8.000000)">
                    <polygon id="chick-right" fill-rule="nonzero" points="25.5739134 18.0458018 22.8660873 17.4442751 24.9721743 20.4519087 24.9721743 29.775573 32.193044 23.7603057 32.193044 13.5343513 28.8834787 14.7374048"></polygon>
                    <polygon id="chick-left" fill-rule="nonzero" transform="translate(6.769565, 21.654962) scale(-1, 1) translate(-6.769565, -21.654962) " points="4.81391312 18.0458018 2.10608699 17.4442751 4.21217398 20.4519087 4.21217398 29.775573 11.4330436 23.7603057 11.4330436 13.5343513 8.12347838 14.7374048"></polygon>
                    <path d="M24.0696445,31.2787473 L19.8575188,34.2875049 L19.8573127,35.4907193 L24.0694384,32.4819618 L24.0696445,31.2787473 Z M24.0696445,28.8726404 L19.8575188,31.881398 L19.8573127,33.0846124 L24.0694384,30.0758549 L24.0696445,28.8726404 Z M10.2296926,27.669748 L14.4418182,30.6785055 L14.4416121,29.475291 L10.2294865,26.4665335 L10.2295654,21.0534354 L12.6365219,17.4442751 L14.1408698,18.3465652 L20.1582612,18.3465652 L21.662609,17.4442751 L24.0695656,21.0534354 L24.0695656,34.5877868 L22.2643482,37.294657 L20.1582612,39.4000006 L14.1408698,39.4000006 L12.0347828,37.294657 L10.2295654,34.5877868 L10.2296926,32.4819618 L14.4418182,35.4907193 L14.4416121,34.2875049 L10.2294865,31.2787473 L10.2296926,30.0758549 L14.4418182,33.0846124 L14.4416121,31.881398 L10.2294865,28.8726404 L10.2296926,27.669748 Z M24.0696445,26.4665335 L19.8575188,29.475291 L19.8573127,30.6785055 L24.0694384,27.669748 L24.0696445,26.4665335 Z" id="mask"></path>
                    <polygon id="bottom-chick-right" fill-rule="nonzero" points="24.9721743 35.4900769 28.8834787 31.5801531 28.8834787 27.6702294 24.9721743 30.9786264"></polygon>
                    <polygon id="bottom-chick-left" fill-rule="nonzero" transform="translate(7.371304, 31.580153) scale(-1, 1) translate(-7.371304, -31.580153) " points="5.41565225 35.4900769 9.32695666 31.5801531 9.32695666 27.6702294 5.41565225 30.9786264"></polygon>
                    <path d="M18.9547829,3.8191672e-14 L18.9547829,7.51908408 L20.1582612,6.91755735 L20.1582612,3.8191672e-14 L21.0608699,0 L23.4678264,5.7145039 L19.8573916,17.1435117 L17.7513046,17.1435117 L17.7513046,0 L18.9547829,3.8191672e-14 Z M14.1408698,6.91755735 L15.3443481,7.51908408 L15.3443481,0 L16.5478263,0 L16.5478263,17.1435117 L14.7426089,17.1435117 L10.8313045,5.7145039 L13.2382611,0 L14.1408698,0 L14.1408698,6.91755735 Z" id="head"></path>
                    <polygon id="head-left" fill-rule="nonzero" points="14.7426089 17.1435117 1.80521742 12.3312979 0 4.81221381 11.1321741 5.7145039 15.0434785 17.1435117"></polygon>
                    <polygon id="head-right" fill-rule="nonzero" transform="translate(27.078261, 10.977863) scale(-1, 1) translate(-27.078261, -10.977863) " points="34.2991309 17.1435117 21.3617394 12.3312979 19.556522 4.81221381 30.9895657 5.7145039 34.6000005 17.1435117"></polygon>
                    <polygon id="ear-right" fill-rule="nonzero" points="24.0695656 4.81221381 30.3878265 4.21068709 26.1756526 0 21.9634786 0"></polygon>
                    <polygon id="ear-left" fill-rule="nonzero" transform="translate(8.123478, 2.406107) scale(-1, 1) translate(-8.123478, -2.406107) " points="6.01739139 4.81221381 12.3356524 4.21068709 8.12347838 0 3.91130441 0"></polygon>
                </g>
            </g>
        </g>
    </g>
</svg>